<?xml version="1.0" encoding="UTF-8"?>
<svg id="Capa_1" xmlns="http://www.w3.org/2000/svg" version="1.1" viewBox="0 0 2160 2160">
  <!-- Generator: Adobe Illustrator 29.2.1, SVG Export Plug-In . SVG Version: 2.1.0 Build 116)  -->
  <defs>
    <style>
      .st0 {
        fill: #fff;
      }
    </style>
  </defs>
  <path class="st0" d="M1063.3,989.1c25.8,25.8,20.6,56.5-15.6,92.8l-45.1,45.1-73.9-73.9,56.3-56.3c27.1-27.1,56.2-30,78.4-7.7ZM1382.7,661.3c-19.3-19.3-47.4-14.7-76.5,14.4l-50.7,50.7,68.6,68.6,46.8-46.8c34.6-34.6,38.2-60.5,11.8-86.9ZM1427.8,898.6c20.2-11.8,35.6-22.5,50.7-37.6,42.8-42.8,49-79.1,20.3-107.8-25.8-25.8-60.2-20.3-97.8,17.3l-50.7,50.7,77.5,77.5ZM1641.8,517.9c66.7,66.7,124.5,66.3,163.7,27.1,38.9-38.9,40.9-95.7-27.1-163.8-67.9-67.9-124.8-65.3-163.4-26.7-39.2,39.2-39.6,97.1,26.8,163.4ZM473.7,1452.5l150.1-150,22.8,22.9-6.9,6.7c-23.9,24-28.8,37.3-6.2,59.9l102,102c33.3,33.3,76.8,25.8,123.2-20.6,45.4-45.4,52.3-85.7,17.4-120.6l-91.9-91.9c-31.7-31.7-48-25.1-69.9-3.3l-8.8,8.8-22.9-22.9,89-88.9,20.2-20.3,201.3-201.2c64.1-64.1,123.9-78.8,163.1-39.6,38.9,38.9,30,86.9-12.8,139.6l116.6,4.2c20.4.7,39.7-2.8,53.9-9.1,7.9-3.5,14.6-9.5,18.4-17.4,6-12.7,1.8-22.9-12.1-36.9l-134.4-134.4c-20.9-20.9-33.9-19.6-58.5,4.9l-6.1,6.2-22.9-22.9,234.7-234.6c58.5-58.5,107.2-70.6,142.5-35.3,29.3,29.3,26.4,69.6-7.8,112.4l3.2,3.2c30.3-28.4,64.4-40.2,93.5-34.5-8.2-5.7-16.2-12.3-23.9-20-80-80-49.7-196,47.1-292.8,52.4-52.4,110.6-85.2,165.7-91.4C1329.4-103.4,708.1-76.3,316,316-65.6,697.5-101.6,1295.9,208.1,1718.3l248.7-248.8,17-17ZM1599.1,657c.6.5,1.3,1,1.9,1.7,41.1,41.1,22.8,111.1-47.1,181.1l-320.6,320.6-193.1-15.4-9.8,9.8,54.6,54.6c20.2,20.2,34.7,19,58.5-4.9l10.5-10.5,22.9,22.9-171.6,171.6-22.9-22.9,9.4-9.3c23.5-23.5,23.5-33.5,1.7-55.3l-134.3-134.3c-19-19-29.1-21.2-46.5-6.5-3.3,2.9-6.4,5.9-9,9.3-13,17-12,33.6,13.3,59l94.5,94.4c62.7,62.8,39.8,132.1-43.5,215.4-93.5,93.5-168.7,102.6-221.6,49.7l-104.3-104.3c-19.3-19.3-30-20.4-45.1-7.8l76.1,76.2-29.3,29.3c-50.3-50.3-92.2-50.3-128.8-13.7l-19.2,19.3,152.6,152.6c20.2,20.2,37.6,22.5,57.5,2.6l15.7-15.7,22.8,22.9-177.8,177.8-22.8-22.9,13-13c16.6-16.6,16.6-43.6,0-60.2l-152.6-152.6-19.2,19.2c-34.2,34.3-36.4,72.2,3.2,117.5.3.4.7.8,1,1.2,2.3,2.6,4.8,5.2,7.4,7.9.7.7,1.4,1.4,2.1,2.2,5.7,5.9,11.5,11.8,17.4,17.7,421.2,421.3,1106.7,421.3,1528.1,0,392.2-392.2,419.3-1013.6,81-1437.4-6,55.1-38.9,113.2-91.4,165.7-75.2,75.2-161.9,110.2-234.6,84.6Z"/>
</svg>